# xmcd
# 
# Track frame offsets:
#     150
#     6256
#     32395
#     47170
#     57069
#     72176
#     89896
# 
# Disc length: 1458
# 
# Revision: 0
# Processed by: cddbd v1.5.2PL0 Copyright (c) Steve Scherf et al.
# Submitted via: fre:ac v1.0.17
# 
DISCID=5605b007
DTITLE=Yutaro Sato - Chill Time Cafe
DYEAR=2015
DGENRE=Instrumental
TTITLE0=Good Morning
TTITLE1=Sunshine
TTITLE2=Seabreeze
TTITLE3=Nama Step
TTITLE4=On The SHore
TTITLE5=Sunset Beach
TTITLE6=Latin Moon
EXTD=
EXTT0=
EXTT1=
EXTT2=
EXTT3=
EXTT4=
EXTT5=
EXTT6=
PLAYORDER=
